# xmcd
#
# Track frame offsets:
#	150
#	17385
#	32917
#	54146
#	73016
#	92238
#	110236
#	125694
#	143680
#	159594
#	177678
#	195150
#	215208
#
# Disc length: 3307 seconds
#
# Revision: 1
# Processed by: cddbd v1.5.2PL0 Copyright (c) Steve Scherf et al.
# Submitted via: audiograbber 1.83.01
#
DISCID=bc0ce90d
DTITLE=Fairplay - Fairplays Nr.6
DYEAR=1900
DGENRE=Country
TTITLE0=Mit ´nem Eis Auf´m Karussell
TTITLE1=Viagra Fuer Die Fuesse
TTITLE2=Drachenfliegen
TTITLE3=Es Lohnt Sich Schon
TTITLE4=99,9
TTITLE5=Sims - Salabim
TTITLE6=Die Nadel Und Der Luftballon
TTITLE7=W.h.i.s.k.e.y
TTITLE8=Den Bogen Raus
TTITLE9=Sos - Sommer Ohne Stress
TTITLE10=Ab Dem Naechsten Geht´s Mir Besser
TTITLE11=Zweite-Hand-Herz
TTITLE12=Bonus Track: Der Zeichner (Instr.)
EXTD=
EXTT0=
EXTT1=
EXTT2=
EXTT3=
EXTT4=
EXTT5=
EXTT6=
EXTT7=
EXTT8=
EXTT9=
EXTT10=
EXTT11=
EXTT12=
PLAYORDER=
